PathFileType	4	(X/Y/Z)	C:\Users\italobelli\Desktop\GitHub\PTbot_officialCBL\Personal_Results\FLX21_noisy2.trc
DataRate	CameraRate	NumFrames	NumMarkers	Units	OrigDataRate	OrigDataStartFrame	OrigNumFrames
107.000000	107.000000	26	9	m	107.000000	376	750
Frame#	Time		gu		centelbow		EpL		centpxt8		centijc7		ij		ts		aa		ai
			X1	Y1	Z1	X2	Y2	Z2	X3	Y3	Z3	X4	Y4	Z4	X5	Y5	Z5	X6	Y6	Z6	X7	Y7	Z7	X8	Y8	Z8	X9	Y9	Z9

376	3.5047	-0.082577	0.062787	0.1158	0.12296	0.15943	0.22141	0.10611	0.18677	0.21824	-0.046816	-0.15316	-0.008669	-0.046816	0.031938	-0.008669	0	0	0	-0.14885	-0.011573	0.061006	-0.1098	0.078584	0.1286	-0.12119	-0.080833	0.14656
377	3.514	-0.082326	0.062795	0.11615	0.12391	0.15663	0.22195	0.10725	0.18416	0.21898	-0.046816	-0.15316	-0.008669	-0.046816	0.031938	-0.008669	0	0	0	-0.14892	-0.011293	0.060967	-0.10955	0.078393	0.12894	-0.12149	-0.081057	0.14614
378	3.5234	-0.082062	0.062784	0.11652	0.12483	0.15375	0.22252	0.10838	0.18146	0.21976	-0.046816	-0.15316	-0.008669	-0.046816	0.031938	-0.008669	0	0	0	-0.14899	-0.011	0.060909	-0.10929	0.078189	0.12928	-0.12178	-0.081284	0.14568
379	3.5327	-0.081784	0.062753	0.11689	0.12573	0.15078	0.22311	0.10949	0.17868	0.22058	-0.046816	-0.15316	-0.008669	-0.046816	0.031938	-0.008669	0	0	0	-0.14906	-0.010693	0.060832	-0.10904	0.077973	0.12963	-0.12207	-0.081516	0.14518
380	3.5421	-0.081495	0.062703	0.11727	0.1266	0.14774	0.22373	0.11059	0.17582	0.22143	-0.046816	-0.15316	-0.008669	-0.046816	0.031938	-0.008669	0	0	0	-0.14912	-0.010374	0.060739	-0.10878	0.077744	0.12998	-0.12236	-0.081751	0.14465
381	3.5514	-0.081194	0.062635	0.11766	0.12743	0.14462	0.22438	0.11166	0.17287	0.22232	-0.046816	-0.15316	-0.008669	-0.046816	0.031938	-0.008669	0	0	0	-0.14918	-0.010042	0.060629	-0.10852	0.077503	0.13033	-0.12264	-0.081988	0.14407
382	3.5607	-0.080882	0.062549	0.11805	0.12824	0.14143	0.22505	0.11272	0.16985	0.22324	-0.046816	-0.15316	-0.008669	-0.046816	0.031938	-0.008669	0	0	0	-0.14923	-0.0096991	0.060503	-0.10826	0.077251	0.13069	-0.12293	-0.082229	0.14347
383	3.5701	-0.08056	0.062446	0.11845	0.12902	0.13817	0.22574	0.11376	0.16675	0.2242	-0.046816	-0.15316	-0.008669	-0.046816	0.031938	-0.008669	0	0	0	-0.14928	-0.0093449	0.060363	-0.10799	0.076987	0.13105	-0.12321	-0.082472	0.14283
384	3.5794	-0.080227	0.062326	0.11886	0.12977	0.13484	0.22645	0.11478	0.16358	0.22518	-0.046816	-0.15316	-0.008669	-0.046816	0.031938	-0.008669	0	0	0	-0.14933	-0.00898	0.060208	-0.10773	0.076712	0.13141	-0.12349	-0.082718	0.14215
385	3.5888	-0.079885	0.062188	0.11927	0.13049	0.13145	0.22718	0.11577	0.16035	0.22619	-0.046816	-0.15316	-0.008669	-0.046816	0.031938	-0.008669	0	0	0	-0.14937	-0.0086049	0.06004	-0.10746	0.076426	0.13178	-0.12376	-0.082965	0.14145
386	3.5981	-0.079534	0.062035	0.11968	0.13117	0.128	0.22792	0.11675	0.15704	0.22722	-0.046816	-0.15316	-0.008669	-0.046816	0.031938	-0.008669	0	0	0	-0.1494	-0.0082201	0.059859	-0.1072	0.07613	0.13214	-0.12404	-0.083214	0.14072
387	3.6075	-0.079175	0.061865	0.12011	0.13183	0.12448	0.22868	0.11771	0.15367	0.22828	-0.046816	-0.15316	-0.008669	-0.046816	0.031938	-0.008669	0	0	0	-0.14944	-0.0078261	0.059666	-0.10693	0.075823	0.13251	-0.12431	-0.083464	0.13996
388	3.6168	-0.078808	0.06168	0.12053	0.13246	0.12092	0.22946	0.11864	0.15024	0.22935	-0.046816	-0.15316	-0.008669	-0.046816	0.031938	-0.008669	0	0	0	-0.14947	-0.0074233	0.059462	-0.10666	0.075506	0.13289	-0.12458	-0.083715	0.13917
389	3.6262	-0.078433	0.06148	0.12096	0.13306	0.11729	0.23024	0.11955	0.14676	0.23044	-0.046816	-0.15316	-0.008669	-0.046816	0.031938	-0.008669	0	0	0	-0.14949	-0.0070122	0.059248	-0.1064	0.07518	0.13326	-0.12485	-0.083966	0.13836
390	3.6355	-0.078052	0.061264	0.1214	0.13362	0.11362	0.23104	0.12044	0.14321	0.23155	-0.046816	-0.15316	-0.008669	-0.046816	0.031938	-0.008669	0	0	0	-0.14951	-0.0065933	0.059024	-0.10613	0.074844	0.13364	-0.12512	-0.084218	0.13752
391	3.6449	-0.077665	0.061035	0.12184	0.13416	0.1099	0.23184	0.1213	0.13962	0.23267	-0.046816	-0.15316	-0.008669	-0.046816	0.031938	-0.008669	0	0	0	-0.14953	-0.006167	0.058792	-0.10586	0.074499	0.13402	-0.12538	-0.08447	0.13666
392	3.6542	-0.077272	0.060792	0.12228	0.13466	0.10613	0.23266	0.12214	0.13597	0.23381	-0.046816	-0.15316	-0.008669	-0.046816	0.031938	-0.008669	0	0	0	-0.14955	-0.005734	0.058551	-0.10559	0.074145	0.1344	-0.12565	-0.084722	0.13578
393	3.6636	-0.076873	0.060535	0.12272	0.13514	0.10232	0.23348	0.12296	0.13228	0.23495	-0.046816	-0.15316	-0.008669	-0.046816	0.031938	-0.008669	0	0	0	-0.14956	-0.0052945	0.058303	-0.10532	0.073783	0.13478	-0.12591	-0.084973	0.13487
394	3.6729	-0.07647	0.060264	0.12317	0.13558	0.098475	0.2343	0.12375	0.12854	0.2361	-0.046816	-0.15316	-0.008669	-0.046816	0.031938	-0.008669	0	0	0	-0.14956	-0.0048492	0.058048	-0.10505	0.073412	0.13516	-0.12617	-0.085223	0.13395
395	3.6822	-0.076063	0.059982	0.12362	0.13599	0.094589	0.23513	0.12451	0.12476	0.23725	-0.046816	-0.15316	-0.008669	-0.046816	0.031938	-0.008669	0	0	0	-0.14956	-0.0043984	0.057787	-0.10479	0.073033	0.13554	-0.12643	-0.085473	0.13301
396	3.6916	-0.075652	0.059686	0.12408	0.13636	0.09067	0.23595	0.12525	0.12094	0.23841	-0.046816	-0.15316	-0.008669	-0.046816	0.031938	-0.008669	0	0	0	-0.14956	-0.0039428	0.057522	-0.10452	0.072647	0.13593	-0.12669	-0.08572	0.13206
397	3.7009	-0.075239	0.059379	0.12453	0.13671	0.086718	0.23678	0.12596	0.11709	0.23956	-0.046816	-0.15316	-0.008669	-0.046816	0.031938	-0.008669	0	0	0	-0.14956	-0.0034827	0.057252	-0.10425	0.072253	0.13631	-0.12695	-0.085966	0.13109
398	3.7103	-0.074822	0.05906	0.12499	0.13702	0.082738	0.23761	0.12664	0.1132	0.24072	-0.046816	-0.15316	-0.008669	-0.046816	0.031938	-0.008669	0	0	0	-0.14955	-0.0030186	0.056978	-0.10398	0.071851	0.1367	-0.1272	-0.08621	0.1301
399	3.7196	-0.074404	0.05873	0.12545	0.1373	0.078731	0.23843	0.12729	0.10928	0.24187	-0.046816	-0.15316	-0.008669	-0.046816	0.031938	-0.008669	0	0	0	-0.14954	-0.002551	0.056702	-0.10372	0.071443	0.13708	-0.12746	-0.086451	0.1291
400	3.729	-0.073984	0.058389	0.12591	0.13755	0.074702	0.23925	0.12792	0.10533	0.24301	-0.046816	-0.15316	-0.008669	-0.046816	0.031938	-0.008669	0	0	0	-0.14952	-0.0020805	0.056424	-0.10345	0.071029	0.13747	-0.12771	-0.08669	0.12809
401	3.7383	-0.073564	0.058038	0.12637	0.13777	0.070651	0.24006	0.12851	0.10136	0.24414	-0.046816	-0.15316	-0.008669	-0.046816	0.031938	-0.008669	0	0	0	-0.1495	-0.0016073	0.056144	-0.10319	0.070607	0.13786	-0.12797	-0.086926	0.12707
